<svg width="400" height="400" viewBox="0 0 400 400" fill="none" xmlns="http://www.w3.org/2000/svg">
<g clip-path="url(#clip0_277_360)">
<path d="M200 400C310.457 400 400 310.457 400 200C400 89.543 310.457 0 200 0C89.543 0 0 89.543 0 200C0 310.457 89.543 400 200 400Z" fill="white"/>
<path d="M234.59 135.979L185.208 185.361C165.681 204.889 134.021 204.889 114.5 185.361C94.9723 165.833 94.9723 134.173 114.5 114.652C114.847 114.305 115.201 113.958 115.556 113.625C141.132 89.4928 183.417 104.201 189.361 138.861L210.347 261.159C216.292 295.812 258.583 310.527 284.153 286.396C284.507 286.062 284.861 285.715 285.208 285.368C304.736 265.84 304.736 234.18 285.208 214.659C265.681 195.132 234.021 195.132 214.5 214.659L165.271 263.889" stroke="#6B6A6A" stroke-width="19.4444" stroke-miterlimit="10"/>
<path d="M144.875 286.868L178.299 280.646C180.083 280.313 180.771 278.111 179.486 276.827L152.285 249.625C151 248.341 148.799 249.021 148.465 250.813L142.243 284.236C141.951 285.792 143.312 287.16 144.875 286.868Z" fill="#6B6A6A"/>
<path d="M254.063 114.076L220.639 120.298C218.854 120.632 218.167 122.833 219.451 124.118L246.653 151.319C247.938 152.604 250.139 151.923 250.472 150.132L256.694 116.708C256.986 115.153 255.618 113.784 254.063 114.076Z" fill="#6B6A6A"/>
</g>
<defs>
<clipPath id="clip0_277_360">
<rect width="400" height="400" fill="white"/>
</clipPath>
</defs>
</svg>
